<svg xmlns="http://www.w3.org/2000/svg" xmlns:xlink="http://www.w3.org/1999/xlink" width="2048" zoomAndPan="magnify" viewBox="0 0 1536 470.25" height="627" preserveAspectRatio="xMidYMid meet" version="1.0"><defs><clipPath id="6eeec37b8d"><path d="M 63 47 L 435 47 L 435 380 L 63 380 Z M 63 47 " clip-rule="nonzero"/></clipPath><clipPath id="8417adcd06"><path d="M 63.453125 379.195312 C 108.847656 360.574219 90.222656 296.550781 172.867188 323.324219 C 262.496094 339.621094 340.484375 326.816406 390.535156 216.238281 C 409.160156 163.855469 423.128906 102.164062 434.769531 47.457031 C 163.554688 149.886719 118.160156 87.03125 90.222656 331.472656 C 132.128906 99.835938 183.34375 161.527344 420.800781 64.917969 C 367.253906 269.78125 275.300781 337.292969 163.554688 308.191406 C 101.863281 289.570312 99.535156 340.785156 63.453125 379.195312 Z M 376.566406 112.640625 C 290.429688 169.675781 150.75 154.542969 128.636719 283.75 C 139.113281 263.960938 151.914062 247.664062 165.882812 233.695312 C 198.476562 223.21875 232.230469 239.515625 263.660156 230.203125 C 234.558594 232.53125 204.296875 218.5625 177.523438 223.21875 C 208.953125 198.777344 245.035156 184.808594 281.121094 169.675781 C 310.21875 165.019531 340.484375 176.660156 367.253906 168.511719 C 346.304688 170.839844 323.023438 162.691406 300.90625 160.363281 C 330.007812 148.722656 355.617188 134.757812 376.566406 112.640625 Z M 376.566406 112.640625 " clip-rule="nonzero"/></clipPath><radialGradient gradientTransform="matrix(1.056291, 0, 0, 0.943709, 63.451582, 47.456372)" gradientUnits="userSpaceOnUse" r="175.764039" cx="175.764039" id="d2e0a8a52a" cy="175.764039" fx="175.764039" fy="175.764039"><stop stop-opacity="1" stop-color="rgb(96.000671%, 92.440796%, 60.688782%)" offset="0"/><stop stop-opacity="1" stop-color="rgb(95.846558%, 92.222595%, 60.510254%)" offset="0.00390625"/><stop stop-opacity="1" stop-color="rgb(95.692444%, 92.004395%, 60.3302%)" offset="0.0078125"/><stop stop-opacity="1" stop-color="rgb(95.536804%, 91.78772%, 60.151672%)" offset="0.0117188"/><stop stop-opacity="1" stop-color="rgb(95.38269%, 91.569519%, 59.971619%)" offset="0.015625"/><stop stop-opacity="1" stop-color="rgb(95.227051%, 91.352844%, 59.793091%)" offset="0.0195312"/><stop stop-opacity="1" stop-color="rgb(95.072937%, 91.134644%, 59.614563%)" offset="0.0234375"/><stop stop-opacity="1" stop-color="rgb(94.918823%, 90.917969%, 59.434509%)" offset="0.0273438"/><stop stop-opacity="1" stop-color="rgb(94.763184%, 90.699768%, 59.255981%)" offset="0.03125"/><stop stop-opacity="1" stop-color="rgb(94.60907%, 90.481567%, 59.075928%)" offset="0.0351562"/><stop stop-opacity="1" stop-color="rgb(94.45343%, 90.264893%, 58.8974%)" offset="0.0390625"/><stop stop-opacity="1" stop-color="rgb(94.299316%, 90.046692%, 58.717346%)" offset="0.0429688"/><stop stop-opacity="1" stop-color="rgb(94.145203%, 89.830017%, 58.538818%)" offset="0.046875"/><stop stop-opacity="1" stop-color="rgb(93.989563%, 89.611816%, 58.358765%)" offset="0.0507812"/><stop stop-opacity="1" stop-color="rgb(93.835449%, 89.395142%, 58.180237%)" offset="0.0546875"/><stop stop-opacity="1" stop-color="rgb(93.67981%, 89.176941%, 58.000183%)" offset="0.0585938"/><stop stop-opacity="1" stop-color="rgb(93.525696%, 88.95874%, 57.821655%)" offset="0.0625"/><stop stop-opacity="1" stop-color="rgb(93.371582%, 88.742065%, 57.643127%)" offset="0.0664062"/><stop stop-opacity="1" stop-color="rgb(93.215942%, 88.523865%, 57.463074%)" offset="0.0703125"/><stop stop-opacity="1" stop-color="rgb(93.061829%, 88.30719%, 57.284546%)" offset="0.0742188"/><stop stop-opacity="1" stop-color="rgb(92.906189%, 88.088989%, 57.104492%)" offset="0.078125"/><stop stop-opacity="1" stop-color="rgb(92.752075%, 87.872314%, 56.925964%)" offset="0.0820312"/><stop stop-opacity="1" stop-color="rgb(92.597961%, 87.654114%, 56.745911%)" offset="0.0859375"/><stop stop-opacity="1" stop-color="rgb(92.442322%, 87.435913%, 56.567383%)" offset="0.0898438"/><stop stop-opacity="1" stop-color="rgb(92.288208%, 87.219238%, 56.387329%)" offset="0.09375"/><stop stop-opacity="1" stop-color="rgb(92.132568%, 87.001038%, 56.208801%)" offset="0.0976562"/><stop stop-opacity="1" stop-color="rgb(91.978455%, 86.784363%, 56.030273%)" offset="0.101562"/><stop stop-opacity="1" stop-color="rgb(91.824341%, 86.566162%, 55.85022%)" offset="0.105469"/><stop stop-opacity="1" stop-color="rgb(91.668701%, 86.349487%, 55.671692%)" offset="0.109375"/><stop stop-opacity="1" stop-color="rgb(91.514587%, 86.131287%, 55.491638%)" offset="0.113281"/><stop stop-opacity="1" stop-color="rgb(91.358948%, 85.914612%, 55.31311%)" offset="0.117188"/><stop stop-opacity="1" stop-color="rgb(91.204834%, 85.696411%, 55.133057%)" offset="0.121094"/><stop stop-opacity="1" stop-color="rgb(91.05072%, 85.47821%, 54.954529%)" offset="0.125"/><stop stop-opacity="1" stop-color="rgb(90.895081%, 85.261536%, 54.774475%)" offset="0.128906"/><stop stop-opacity="1" stop-color="rgb(90.740967%, 85.043335%, 54.595947%)" offset="0.132812"/><stop stop-opacity="1" stop-color="rgb(90.585327%, 84.82666%, 54.415894%)" offset="0.136719"/><stop stop-opacity="1" stop-color="rgb(90.431213%, 84.608459%, 54.237366%)" offset="0.140625"/><stop stop-opacity="1" stop-color="rgb(90.2771%, 84.391785%, 54.058838%)" offset="0.144531"/><stop stop-opacity="1" stop-color="rgb(90.12146%, 84.173584%, 53.878784%)" offset="0.148438"/><stop stop-opacity="1" stop-color="rgb(89.967346%, 83.955383%, 53.700256%)" offset="0.152344"/><stop stop-opacity="1" stop-color="rgb(89.811707%, 83.738708%, 53.520203%)" offset="0.15625"/><stop stop-opacity="1" stop-color="rgb(89.657593%, 83.520508%, 53.341675%)" offset="0.160156"/><stop stop-opacity="1" stop-color="rgb(89.503479%, 83.303833%, 53.161621%)" offset="0.164062"/><stop stop-opacity="1" stop-color="rgb(89.347839%, 83.085632%, 52.983093%)" offset="0.167969"/><stop stop-opacity="1" stop-color="rgb(89.193726%, 82.868958%, 52.80304%)" offset="0.171875"/><stop stop-opacity="1" stop-color="rgb(89.038086%, 82.650757%, 52.624512%)" offset="0.175781"/><stop stop-opacity="1" stop-color="rgb(88.883972%, 82.432556%, 52.444458%)" offset="0.179688"/><stop stop-opacity="1" stop-color="rgb(88.729858%, 82.215881%, 52.26593%)" offset="0.183594"/><stop stop-opacity="1" stop-color="rgb(88.574219%, 81.997681%, 52.087402%)" offset="0.1875"/><stop stop-opacity="1" stop-color="rgb(88.420105%, 81.781006%, 51.907349%)" offset="0.191406"/><stop stop-opacity="1" stop-color="rgb(88.264465%, 81.562805%, 51.728821%)" offset="0.195312"/><stop stop-opacity="1" stop-color="rgb(88.110352%, 81.34613%, 51.548767%)" offset="0.199219"/><stop stop-opacity="1" stop-color="rgb(87.956238%, 81.12793%, 51.370239%)" offset="0.203125"/><stop stop-opacity="1" stop-color="rgb(87.800598%, 80.909729%, 51.190186%)" offset="0.207031"/><stop stop-opacity="1" stop-color="rgb(87.646484%, 80.693054%, 51.011658%)" offset="0.210938"/><stop stop-opacity="1" stop-color="rgb(87.490845%, 80.474854%, 50.831604%)" offset="0.214844"/><stop stop-opacity="1" stop-color="rgb(87.336731%, 80.258179%, 50.653076%)" offset="0.21875"/><stop stop-opacity="1" stop-color="rgb(87.182617%, 80.039978%, 50.473022%)" offset="0.222656"/><stop stop-opacity="1" stop-color="rgb(87.026978%, 79.823303%, 50.294495%)" offset="0.226562"/><stop stop-opacity="1" stop-color="rgb(86.872864%, 79.605103%, 50.115967%)" offset="0.230469"/><stop stop-opacity="1" stop-color="rgb(86.717224%, 79.388428%, 49.935913%)" offset="0.234375"/><stop stop-opacity="1" stop-color="rgb(86.56311%, 79.170227%, 49.757385%)" offset="0.238281"/><stop stop-opacity="1" stop-color="rgb(86.408997%, 78.952026%, 49.577332%)" offset="0.242188"/><stop stop-opacity="1" stop-color="rgb(86.253357%, 78.735352%, 49.398804%)" offset="0.246094"/><stop stop-opacity="1" stop-color="rgb(86.099243%, 78.517151%, 49.21875%)" offset="0.25"/><stop stop-opacity="1" stop-color="rgb(85.943604%, 78.300476%, 49.040222%)" offset="0.253906"/><stop stop-opacity="1" stop-color="rgb(85.78949%, 78.082275%, 48.860168%)" offset="0.257812"/><stop stop-opacity="1" stop-color="rgb(85.635376%, 77.865601%, 48.681641%)" offset="0.261719"/><stop stop-opacity="1" stop-color="rgb(85.479736%, 77.6474%, 48.501587%)" offset="0.265625"/><stop stop-opacity="1" stop-color="rgb(85.325623%, 77.429199%, 48.323059%)" offset="0.269531"/><stop stop-opacity="1" stop-color="rgb(85.169983%, 77.212524%, 48.144531%)" offset="0.273438"/><stop stop-opacity="1" stop-color="rgb(85.015869%, 76.994324%, 47.964478%)" offset="0.277344"/><stop stop-opacity="1" stop-color="rgb(84.861755%, 76.777649%, 47.78595%)" offset="0.28125"/><stop stop-opacity="1" stop-color="rgb(84.706116%, 76.559448%, 47.605896%)" offset="0.285156"/><stop stop-opacity="1" stop-color="rgb(84.552002%, 76.342773%, 47.427368%)" offset="0.289062"/><stop stop-opacity="1" stop-color="rgb(84.396362%, 76.124573%, 47.247314%)" offset="0.292969"/><stop stop-opacity="1" stop-color="rgb(84.242249%, 75.906372%, 47.068787%)" offset="0.296875"/><stop stop-opacity="1" stop-color="rgb(84.088135%, 75.689697%, 46.888733%)" offset="0.300781"/><stop stop-opacity="1" stop-color="rgb(83.932495%, 75.471497%, 46.710205%)" offset="0.304688"/><stop stop-opacity="1" stop-color="rgb(83.778381%, 75.254822%, 46.531677%)" offset="0.308594"/><stop stop-opacity="1" stop-color="rgb(83.622742%, 75.036621%, 46.351624%)" offset="0.3125"/><stop stop-opacity="1" stop-color="rgb(83.468628%, 74.819946%, 46.173096%)" offset="0.316406"/><stop stop-opacity="1" stop-color="rgb(83.314514%, 74.601746%, 45.993042%)" offset="0.320312"/><stop stop-opacity="1" stop-color="rgb(83.158875%, 74.383545%, 45.814514%)" offset="0.324219"/><stop stop-opacity="1" stop-color="rgb(83.004761%, 74.16687%, 45.63446%)" offset="0.328125"/><stop stop-opacity="1" stop-color="rgb(82.849121%, 73.948669%, 45.455933%)" offset="0.332031"/><stop stop-opacity="1" stop-color="rgb(82.695007%, 73.731995%, 45.275879%)" offset="0.335938"/><stop stop-opacity="1" stop-color="rgb(82.540894%, 73.513794%, 45.097351%)" offset="0.339844"/><stop stop-opacity="1" stop-color="rgb(82.385254%, 73.297119%, 44.917297%)" offset="0.34375"/><stop stop-opacity="1" stop-color="rgb(82.23114%, 73.078918%, 44.73877%)" offset="0.347656"/><stop stop-opacity="1" stop-color="rgb(82.0755%, 72.862244%, 44.560242%)" offset="0.351562"/><stop stop-opacity="1" stop-color="rgb(81.921387%, 72.644043%, 44.380188%)" offset="0.355469"/><stop stop-opacity="1" stop-color="rgb(81.767273%, 72.425842%, 44.20166%)" offset="0.359375"/><stop stop-opacity="1" stop-color="rgb(81.611633%, 72.209167%, 44.021606%)" offset="0.363281"/><stop stop-opacity="1" stop-color="rgb(81.45752%, 71.990967%, 43.843079%)" offset="0.367188"/><stop stop-opacity="1" stop-color="rgb(81.30188%, 71.774292%, 43.663025%)" offset="0.371094"/><stop stop-opacity="1" stop-color="rgb(81.147766%, 71.556091%, 43.484497%)" offset="0.375"/><stop stop-opacity="1" stop-color="rgb(80.993652%, 71.339417%, 43.304443%)" offset="0.378906"/><stop stop-opacity="1" stop-color="rgb(80.838013%, 71.121216%, 43.125916%)" offset="0.382812"/><stop stop-opacity="1" stop-color="rgb(80.683899%, 70.903015%, 42.945862%)" offset="0.386719"/><stop stop-opacity="1" stop-color="rgb(80.528259%, 70.68634%, 42.767334%)" offset="0.390625"/><stop stop-opacity="1" stop-color="rgb(80.374146%, 70.46814%, 42.588806%)" offset="0.394531"/><stop stop-opacity="1" stop-color="rgb(80.220032%, 70.251465%, 42.408752%)" offset="0.398438"/><stop stop-opacity="1" stop-color="rgb(80.064392%, 70.033264%, 42.230225%)" offset="0.402344"/><stop stop-opacity="1" stop-color="rgb(79.910278%, 69.816589%, 42.050171%)" offset="0.40625"/><stop stop-opacity="1" stop-color="rgb(79.754639%, 69.598389%, 41.871643%)" offset="0.410156"/><stop stop-opacity="1" stop-color="rgb(79.600525%, 69.380188%, 41.691589%)" offset="0.414062"/><stop stop-opacity="1" stop-color="rgb(79.446411%, 69.163513%, 41.513062%)" offset="0.417969"/><stop stop-opacity="1" stop-color="rgb(79.290771%, 68.945312%, 41.333008%)" offset="0.421875"/><stop stop-opacity="1" stop-color="rgb(79.136658%, 68.728638%, 41.15448%)" offset="0.425781"/><stop stop-opacity="1" stop-color="rgb(78.981018%, 68.510437%, 40.974426%)" offset="0.429688"/><stop stop-opacity="1" stop-color="rgb(78.826904%, 68.293762%, 40.795898%)" offset="0.433594"/><stop stop-opacity="1" stop-color="rgb(78.672791%, 68.075562%, 40.617371%)" offset="0.4375"/><stop stop-opacity="1" stop-color="rgb(78.517151%, 67.857361%, 40.437317%)" offset="0.441406"/><stop stop-opacity="1" stop-color="rgb(78.363037%, 67.640686%, 40.258789%)" offset="0.445312"/><stop stop-opacity="1" stop-color="rgb(78.207397%, 67.422485%, 40.078735%)" offset="0.449219"/><stop stop-opacity="1" stop-color="rgb(78.053284%, 67.205811%, 39.900208%)" offset="0.453125"/><stop stop-opacity="1" stop-color="rgb(77.89917%, 66.98761%, 39.720154%)" offset="0.457031"/><stop stop-opacity="1" stop-color="rgb(77.74353%, 66.770935%, 39.541626%)" offset="0.460938"/><stop stop-opacity="1" stop-color="rgb(77.589417%, 66.552734%, 39.361572%)" offset="0.464844"/><stop stop-opacity="1" stop-color="rgb(77.433777%, 66.33606%, 39.183044%)" offset="0.46875"/><stop stop-opacity="1" stop-color="rgb(77.279663%, 66.117859%, 39.002991%)" offset="0.472656"/><stop stop-opacity="1" stop-color="rgb(77.124023%, 65.899658%, 38.824463%)" offset="0.476562"/><stop stop-opacity="1" stop-color="rgb(76.96991%, 65.682983%, 38.645935%)" offset="0.480469"/><stop stop-opacity="1" stop-color="rgb(76.815796%, 65.464783%, 38.465881%)" offset="0.484375"/><stop stop-opacity="1" stop-color="rgb(76.660156%, 65.248108%, 38.287354%)" offset="0.488281"/><stop stop-opacity="1" stop-color="rgb(76.506042%, 65.029907%, 38.1073%)" offset="0.492188"/><stop stop-opacity="1" stop-color="rgb(76.350403%, 64.813232%, 37.928772%)" offset="0.496094"/><stop stop-opacity="1" stop-color="rgb(76.196289%, 64.595032%, 37.748718%)" offset="0.5"/><stop stop-opacity="1" stop-color="rgb(76.042175%, 64.376831%, 37.57019%)" offset="0.503906"/><stop stop-opacity="1" stop-color="rgb(75.886536%, 64.160156%, 37.390137%)" offset="0.507812"/><stop stop-opacity="1" stop-color="rgb(75.732422%, 63.941956%, 37.211609%)" offset="0.511719"/><stop stop-opacity="1" stop-color="rgb(75.576782%, 63.725281%, 37.033081%)" offset="0.515625"/><stop stop-opacity="1" stop-color="rgb(75.422668%, 63.50708%, 36.853027%)" offset="0.519531"/><stop stop-opacity="1" stop-color="rgb(75.268555%, 63.290405%, 36.6745%)" offset="0.523438"/><stop stop-opacity="1" stop-color="rgb(75.112915%, 63.072205%, 36.494446%)" offset="0.527344"/><stop stop-opacity="1" stop-color="rgb(74.958801%, 62.854004%, 36.315918%)" offset="0.53125"/><stop stop-opacity="1" stop-color="rgb(74.803162%, 62.637329%, 36.135864%)" offset="0.535156"/><stop stop-opacity="1" stop-color="rgb(74.649048%, 62.419128%, 35.957336%)" offset="0.539062"/><stop stop-opacity="1" stop-color="rgb(74.494934%, 62.202454%, 35.777283%)" offset="0.542969"/><stop stop-opacity="1" stop-color="rgb(74.339294%, 61.984253%, 35.598755%)" offset="0.546875"/><stop stop-opacity="1" stop-color="rgb(74.185181%, 61.767578%, 35.418701%)" offset="0.550781"/><stop stop-opacity="1" stop-color="rgb(74.029541%, 61.549377%, 35.240173%)" offset="0.554688"/><stop stop-opacity="1" stop-color="rgb(73.875427%, 61.332703%, 35.061646%)" offset="0.558594"/><stop stop-opacity="1" stop-color="rgb(73.721313%, 61.114502%, 34.881592%)" offset="0.5625"/><stop stop-opacity="1" stop-color="rgb(73.565674%, 60.896301%, 34.703064%)" offset="0.566406"/><stop stop-opacity="1" stop-color="rgb(73.41156%, 60.679626%, 34.52301%)" offset="0.570312"/><stop stop-opacity="1" stop-color="rgb(73.25592%, 60.461426%, 34.344482%)" offset="0.574219"/><stop stop-opacity="1" stop-color="rgb(73.101807%, 60.244751%, 34.164429%)" offset="0.578125"/><stop stop-opacity="1" stop-color="rgb(72.947693%, 60.02655%, 33.985901%)" offset="0.582031"/><stop stop-opacity="1" stop-color="rgb(72.792053%, 59.809875%, 33.805847%)" offset="0.585938"/><stop stop-opacity="1" stop-color="rgb(72.637939%, 59.591675%, 33.627319%)" offset="0.589844"/><stop stop-opacity="1" stop-color="rgb(72.4823%, 59.373474%, 33.447266%)" offset="0.59375"/><stop stop-opacity="1" stop-color="rgb(72.328186%, 59.156799%, 33.268738%)" offset="0.597656"/><stop stop-opacity="1" stop-color="rgb(72.174072%, 58.938599%, 33.09021%)" offset="0.601562"/><stop stop-opacity="1" stop-color="rgb(72.018433%, 58.721924%, 32.910156%)" offset="0.605469"/><stop stop-opacity="1" stop-color="rgb(71.864319%, 58.503723%, 32.731628%)" offset="0.609375"/><stop stop-opacity="1" stop-color="rgb(71.708679%, 58.287048%, 32.551575%)" offset="0.613281"/><stop stop-opacity="1" stop-color="rgb(71.554565%, 58.068848%, 32.373047%)" offset="0.617188"/><stop stop-opacity="1" stop-color="rgb(71.400452%, 57.850647%, 32.192993%)" offset="0.621094"/><stop stop-opacity="1" stop-color="rgb(71.244812%, 57.633972%, 32.014465%)" offset="0.625"/><stop stop-opacity="1" stop-color="rgb(71.090698%, 57.415771%, 31.834412%)" offset="0.628906"/><stop stop-opacity="1" stop-color="rgb(70.935059%, 57.199097%, 31.655884%)" offset="0.632812"/><stop stop-opacity="1" stop-color="rgb(70.780945%, 56.980896%, 31.47583%)" offset="0.636719"/><stop stop-opacity="1" stop-color="rgb(70.626831%, 56.764221%, 31.297302%)" offset="0.640625"/><stop stop-opacity="1" stop-color="rgb(70.471191%, 56.546021%, 31.118774%)" offset="0.644531"/><stop stop-opacity="1" stop-color="rgb(70.317078%, 56.32782%, 30.938721%)" offset="0.648438"/><stop stop-opacity="1" stop-color="rgb(70.161438%, 56.111145%, 30.760193%)" offset="0.652344"/><stop stop-opacity="1" stop-color="rgb(70.007324%, 55.892944%, 30.580139%)" offset="0.65625"/><stop stop-opacity="1" stop-color="rgb(69.85321%, 55.67627%, 30.401611%)" offset="0.660156"/><stop stop-opacity="1" stop-color="rgb(69.697571%, 55.458069%, 30.221558%)" offset="0.664062"/><stop stop-opacity="1" stop-color="rgb(69.543457%, 55.241394%, 30.04303%)" offset="0.667969"/><stop stop-opacity="1" stop-color="rgb(69.387817%, 55.023193%, 29.862976%)" offset="0.671875"/><stop stop-opacity="1" stop-color="rgb(69.233704%, 54.806519%, 29.684448%)" offset="0.675781"/><stop stop-opacity="1" stop-color="rgb(69.07959%, 54.588318%, 29.504395%)" offset="0.679688"/><stop stop-opacity="1" stop-color="rgb(68.92395%, 54.370117%, 29.325867%)" offset="0.683594"/><stop stop-opacity="1" stop-color="rgb(68.769836%, 54.153442%, 29.147339%)" offset="0.6875"/><stop stop-opacity="1" stop-color="rgb(68.614197%, 53.935242%, 28.967285%)" offset="0.691406"/><stop stop-opacity="1" stop-color="rgb(68.460083%, 53.718567%, 28.788757%)" offset="0.695312"/><stop stop-opacity="1" stop-color="rgb(68.305969%, 53.500366%, 28.608704%)" offset="0.699219"/><stop stop-opacity="1" stop-color="rgb(68.15033%, 53.283691%, 28.430176%)" offset="0.703125"/><stop stop-opacity="1" stop-color="rgb(67.996216%, 53.065491%, 28.250122%)" offset="0.707031"/><stop stop-opacity="1" stop-color="rgb(67.840576%, 52.84729%, 28.071594%)" offset="0.710938"/><stop stop-opacity="1" stop-color="rgb(67.686462%, 52.630615%, 27.891541%)" offset="0.714844"/><stop stop-opacity="1" stop-color="rgb(67.532349%, 52.412415%, 27.713013%)" offset="0.71875"/><stop stop-opacity="1" stop-color="rgb(67.376709%, 52.19574%, 27.534485%)" offset="0.722656"/><stop stop-opacity="1" stop-color="rgb(67.222595%, 51.977539%, 27.354431%)" offset="0.726562"/><stop stop-opacity="1" stop-color="rgb(67.066956%, 51.760864%, 27.175903%)" offset="0.730469"/><stop stop-opacity="1" stop-color="rgb(66.912842%, 51.542664%, 26.99585%)" offset="0.734375"/><stop stop-opacity="1" stop-color="rgb(66.758728%, 51.324463%, 26.817322%)" offset="0.738281"/><stop stop-opacity="1" stop-color="rgb(66.603088%, 51.107788%, 26.637268%)" offset="0.742188"/><stop stop-opacity="1" stop-color="rgb(66.448975%, 50.889587%, 26.45874%)" offset="0.746094"/><stop stop-opacity="1" stop-color="rgb(66.293335%, 50.672913%, 26.278687%)" offset="0.75"/><stop stop-opacity="1" stop-color="rgb(66.139221%, 50.454712%, 26.100159%)" offset="0.753906"/><stop stop-opacity="1" stop-color="rgb(65.985107%, 50.238037%, 25.920105%)" offset="0.757812"/><stop stop-opacity="1" stop-color="rgb(65.829468%, 50.019836%, 25.741577%)" offset="0.761719"/><stop stop-opacity="1" stop-color="rgb(65.675354%, 49.801636%, 25.563049%)" offset="0.765625"/><stop stop-opacity="1" stop-color="rgb(65.519714%, 49.584961%, 25.382996%)" offset="0.769531"/><stop stop-opacity="1" stop-color="rgb(65.365601%, 49.36676%, 25.204468%)" offset="0.773438"/><stop stop-opacity="1" stop-color="rgb(65.211487%, 49.150085%, 25.024414%)" offset="0.777344"/><stop stop-opacity="1" stop-color="rgb(65.055847%, 48.931885%, 24.845886%)" offset="0.78125"/><stop stop-opacity="1" stop-color="rgb(64.901733%, 48.71521%, 24.665833%)" offset="0.785156"/><stop stop-opacity="1" stop-color="rgb(64.746094%, 48.497009%, 24.487305%)" offset="0.789062"/><stop stop-opacity="1" stop-color="rgb(64.59198%, 48.280334%, 24.307251%)" offset="0.792969"/><stop stop-opacity="1" stop-color="rgb(64.437866%, 48.062134%, 24.128723%)" offset="0.796875"/><stop stop-opacity="1" stop-color="rgb(64.282227%, 47.843933%, 23.948669%)" offset="0.800781"/><stop stop-opacity="1" stop-color="rgb(64.128113%, 47.627258%, 23.770142%)" offset="0.804688"/><stop stop-opacity="1" stop-color="rgb(63.972473%, 47.409058%, 23.591614%)" offset="0.808594"/><stop stop-opacity="1" stop-color="rgb(63.818359%, 47.192383%, 23.41156%)" offset="0.8125"/><stop stop-opacity="1" stop-color="rgb(63.664246%, 46.974182%, 23.233032%)" offset="0.816406"/><stop stop-opacity="1" stop-color="rgb(63.508606%, 46.757507%, 23.052979%)" offset="0.820312"/><stop stop-opacity="1" stop-color="rgb(63.354492%, 46.539307%, 22.874451%)" offset="0.824219"/><stop stop-opacity="1" stop-color="rgb(63.198853%, 46.321106%, 22.694397%)" offset="0.828125"/><stop stop-opacity="1" stop-color="rgb(63.044739%, 46.104431%, 22.515869%)" offset="0.832031"/><stop stop-opacity="1" stop-color="rgb(62.890625%, 45.88623%, 22.335815%)" offset="0.835938"/><stop stop-opacity="1" stop-color="rgb(62.734985%, 45.669556%, 22.157288%)" offset="0.839844"/><stop stop-opacity="1" stop-color="rgb(62.580872%, 45.451355%, 21.977234%)" offset="0.84375"/><stop stop-opacity="1" stop-color="rgb(62.425232%, 45.23468%, 21.798706%)" offset="0.847656"/><stop stop-opacity="1" stop-color="rgb(62.271118%, 45.016479%, 21.620178%)" offset="0.851562"/><stop stop-opacity="1" stop-color="rgb(62.117004%, 44.798279%, 21.440125%)" offset="0.855469"/><stop stop-opacity="1" stop-color="rgb(61.961365%, 44.581604%, 21.261597%)" offset="0.859375"/><stop stop-opacity="1" stop-color="rgb(61.807251%, 44.363403%, 21.081543%)" offset="0.863281"/><stop stop-opacity="1" stop-color="rgb(61.651611%, 44.146729%, 20.903015%)" offset="0.867188"/><stop stop-opacity="1" stop-color="rgb(61.497498%, 43.928528%, 20.722961%)" offset="0.871094"/><stop stop-opacity="1" stop-color="rgb(61.343384%, 43.711853%, 20.544434%)" offset="0.875"/><stop stop-opacity="1" stop-color="rgb(61.187744%, 43.493652%, 20.36438%)" offset="0.878906"/><stop stop-opacity="1" stop-color="rgb(61.03363%, 43.275452%, 20.185852%)" offset="0.882812"/><stop stop-opacity="1" stop-color="rgb(60.877991%, 43.058777%, 20.005798%)" offset="0.886719"/><stop stop-opacity="1" stop-color="rgb(60.723877%, 42.840576%, 19.827271%)" offset="0.890625"/><stop stop-opacity="1" stop-color="rgb(60.569763%, 42.623901%, 19.648743%)" offset="0.894531"/><stop stop-opacity="1" stop-color="rgb(60.414124%, 42.405701%, 19.468689%)" offset="0.898438"/><stop stop-opacity="1" stop-color="rgb(60.26001%, 42.189026%, 19.290161%)" offset="0.902344"/><stop stop-opacity="1" stop-color="rgb(60.10437%, 41.970825%, 19.110107%)" offset="0.90625"/><stop stop-opacity="1" stop-color="rgb(59.950256%, 41.75415%, 18.93158%)" offset="0.910156"/><stop stop-opacity="1" stop-color="rgb(59.796143%, 41.53595%, 18.751526%)" offset="0.914062"/><stop stop-opacity="1" stop-color="rgb(59.640503%, 41.317749%, 18.572998%)" offset="0.917969"/><stop stop-opacity="1" stop-color="rgb(59.486389%, 41.101074%, 18.392944%)" offset="0.921875"/><stop stop-opacity="1" stop-color="rgb(59.33075%, 40.882874%, 18.214417%)" offset="0.925781"/><stop stop-opacity="1" stop-color="rgb(59.176636%, 40.666199%, 18.035889%)" offset="0.929688"/><stop stop-opacity="1" stop-color="rgb(59.022522%, 40.447998%, 17.855835%)" offset="0.933594"/><stop stop-opacity="1" stop-color="rgb(58.866882%, 40.231323%, 17.677307%)" offset="0.9375"/><stop stop-opacity="1" stop-color="rgb(58.712769%, 40.013123%, 17.497253%)" offset="0.941406"/><stop stop-opacity="1" stop-color="rgb(58.557129%, 39.794922%, 17.318726%)" offset="0.945312"/><stop stop-opacity="1" stop-color="rgb(58.403015%, 39.578247%, 17.138672%)" offset="0.949219"/><stop stop-opacity="1" stop-color="rgb(58.247375%, 39.360046%, 16.960144%)" offset="0.953125"/><stop stop-opacity="1" stop-color="rgb(58.093262%, 39.143372%, 16.78009%)" offset="0.957031"/><stop stop-opacity="1" stop-color="rgb(57.939148%, 38.925171%, 16.601562%)" offset="0.960938"/><stop stop-opacity="1" stop-color="rgb(57.783508%, 38.708496%, 16.421509%)" offset="0.964844"/><stop stop-opacity="1" stop-color="rgb(57.629395%, 38.490295%, 16.242981%)" offset="0.96875"/><stop stop-opacity="1" stop-color="rgb(57.473755%, 38.272095%, 16.064453%)" offset="0.972656"/><stop stop-opacity="1" stop-color="rgb(57.319641%, 38.05542%, 15.884399%)" offset="0.976562"/><stop stop-opacity="1" stop-color="rgb(57.165527%, 37.837219%, 15.705872%)" offset="0.980469"/><stop stop-opacity="1" stop-color="rgb(57.009888%, 37.620544%, 15.525818%)" offset="0.984375"/><stop stop-opacity="1" stop-color="rgb(56.855774%, 37.402344%, 15.34729%)" offset="0.988281"/><stop stop-opacity="1" stop-color="rgb(56.700134%, 37.185669%, 15.167236%)" offset="0.992188"/><stop stop-opacity="1" stop-color="rgb(56.546021%, 36.967468%, 14.988708%)" offset="0.996094"/><stop stop-opacity="1" stop-color="rgb(56.469727%, 36.859131%, 14.898682%)" offset="1"/></radialGradient></defs><g clip-path="url(#6eeec37b8d)"><g clip-path="url(#8417adcd06)"><path fill="url(#d2e0a8a52a)" d="M 63.453125 47.457031 L 63.453125 379.195312 L 434.769531 379.195312 L 434.769531 47.457031 Z M 63.453125 47.457031 " fill-rule="nonzero"/></g></g><path fill="#ffffff" d="M 586.875 185.523438 L 624.308594 185.523438 C 645.105469 185.523438 655.503906 175.503906 655.503906 155.464844 C 655.503906 145.066406 652.902344 137.550781 647.703125 132.917969 C 642.503906 128.289062 634.707031 125.972656 624.308594 125.972656 L 546.605469 125.972656 L 546.605469 194.03125 C 552.46875 190.628906 559.085938 188.265625 566.457031 186.941406 C 571.941406 185.996094 578.746094 185.523438 586.875 185.523438 Z M 546.605469 306.617188 L 515.695312 306.617188 L 515.695312 95.0625 L 624.308594 95.0625 C 636.785156 95.0625 647.65625 97.472656 656.921875 102.292969 C 666.183594 107.113281 673.371094 114.0625 678.472656 123.136719 C 683.578125 132.210938 686.128906 142.941406 686.128906 155.324219 C 686.128906 167.707031 683.578125 178.53125 678.472656 187.792969 C 673.371094 197.058594 666.136719 204.195312 656.78125 209.203125 C 647.421875 214.214844 636.597656 216.71875 624.308594 216.71875 L 586.875 216.71875 C 570.617188 216.71875 557.195312 219.554688 546.605469 225.226562 Z M 958.796875 126.253906 L 884.214844 126.253906 L 884.214844 306.617188 L 854.15625 306.617188 L 854.15625 126.253906 L 778.722656 126.253906 L 778.722656 95.0625 L 958.796875 95.0625 Z M 1099.316406 221.824219 L 1099.316406 275.707031 L 1229.765625 275.707031 L 1229.765625 306.617188 L 1068.40625 306.617188 L 1068.40625 95.0625 L 1217.289062 95.0625 L 1217.289062 126.253906 L 1099.316406 126.253906 L 1099.316406 190.347656 C 1105.175781 186.941406 1111.699219 184.675781 1118.882812 183.539062 C 1124.175781 182.59375 1130.984375 182.121094 1139.300781 182.121094 L 1185.527344 182.121094 L 1185.527344 213.601562 L 1139.300781 213.601562 C 1131.550781 213.601562 1124.742188 214.074219 1118.882812 215.019531 C 1111.699219 216.339844 1105.175781 218.609375 1099.316406 221.824219 Z M 1099.316406 221.824219 " fill-opacity="1" fill-rule="nonzero"/><path fill="#ffffff" d="M 536.90625 357.628906 L 515.695312 357.628906 L 515.695312 378.839844 C 515.695312 379.472656 516.011719 379.785156 516.640625 379.785156 C 517.273438 379.785156 517.585938 379.472656 517.585938 378.839844 L 517.585938 373.03125 L 536.90625 373.03125 C 539.046875 373.03125 540.863281 372.277344 542.363281 370.769531 C 543.859375 369.257812 544.609375 367.445312 544.609375 365.332031 C 544.609375 363.191406 543.859375 361.371094 542.363281 359.875 C 540.863281 358.378906 539.046875 357.628906 536.90625 357.628906 Z M 536.90625 371.140625 L 517.585938 371.140625 L 517.585938 359.519531 L 536.90625 359.519531 C 538.503906 359.519531 539.875 360.089844 541.011719 361.226562 C 542.148438 362.363281 542.714844 363.730469 542.714844 365.332031 C 542.714844 366.929688 542.148438 368.296875 541.011719 369.433594 C 539.875 370.570312 538.503906 371.140625 536.90625 371.140625 Z M 550.957031 358.777344 L 550.957031 371.882812 C 550.957031 375.035156 552.601562 377.355469 555.886719 378.839844 C 558.367188 379.964844 561.539062 380.53125 565.414062 380.53125 C 569.308594 380.53125 572.496094 379.964844 574.972656 378.839844 C 578.238281 377.355469 579.871094 375.035156 579.871094 371.882812 L 579.871094 358.777344 C 579.871094 358.148438 579.554688 357.832031 578.921875 357.832031 C 578.292969 357.832031 577.976562 358.148438 577.976562 358.777344 L 577.976562 371.882812 C 577.976562 374.539062 576.355469 376.429688 573.113281 377.558594 C 571.019531 378.277344 568.453125 378.636719 565.414062 378.636719 C 562.375 378.636719 559.804688 378.277344 557.710938 377.558594 C 554.46875 376.429688 552.847656 374.539062 552.847656 371.882812 L 552.847656 358.777344 C 552.847656 358.148438 552.535156 357.832031 551.902344 357.832031 C 551.273438 357.832031 550.957031 358.148438 550.957031 358.777344 Z M 614.117188 378.097656 L 588.042969 378.097656 L 588.042969 358.777344 C 588.042969 358.148438 587.726562 357.832031 587.097656 357.832031 C 586.464844 357.832031 586.152344 358.148438 586.152344 358.777344 L 586.152344 379.957031 L 614.117188 379.957031 C 614.75 379.957031 615.0625 379.652344 615.0625 379.042969 C 615.0625 378.414062 614.75 378.097656 614.117188 378.097656 Z M 620.601562 372.085938 C 620.601562 374.40625 622 376.359375 624.789062 377.945312 C 627.582031 379.53125 631.003906 380.328125 635.058594 380.328125 C 639.089844 380.328125 642.375 379.886719 644.921875 379.007812 C 647.984375 377.953125 649.515625 376.398438 649.515625 374.347656 C 649.515625 372.210938 648.207031 370.667969 645.597656 369.722656 C 644.109375 369.179688 641.21875 368.617188 636.917969 368.03125 L 633.574219 367.558594 C 629.496094 366.972656 626.792969 366.457031 625.464844 366.007812 C 623.484375 365.332031 622.492188 364.351562 622.492188 363.066406 C 622.492188 361.851562 623.664062 360.859375 626.007812 360.09375 C 628.347656 359.328125 631.367188 358.945312 635.058594 358.945312 C 638.457031 358.945312 641.402344 359.578125 643.890625 360.839844 C 646.378906 362.097656 647.625 363.597656 647.625 365.332031 C 647.625 365.960938 647.9375 366.277344 648.570312 366.277344 C 649.199219 366.277344 649.515625 365.960938 649.515625 365.332031 C 649.515625 363.011719 648.117188 361.058594 645.328125 359.46875 C 642.535156 357.882812 639.113281 357.089844 635.058594 357.089844 C 631.027344 357.089844 627.742188 357.527344 625.195312 358.40625 C 622.132812 359.464844 620.601562 361.019531 620.601562 363.066406 C 620.601562 365.207031 621.964844 366.761719 624.691406 367.726562 C 625.996094 368.179688 628.878906 368.742188 633.335938 369.417969 L 634.921875 369.652344 L 636.644531 369.890625 C 640.765625 370.453125 643.503906 370.972656 644.855469 371.445312 C 646.699219 372.074219 647.625 373.042969 647.625 374.347656 C 647.625 375.5625 646.453125 376.554688 644.109375 377.320312 C 641.769531 378.085938 638.75 378.46875 635.058594 378.46875 C 631.660156 378.46875 628.714844 377.839844 626.226562 376.578125 C 623.738281 375.316406 622.492188 373.820312 622.492188 372.085938 C 622.492188 371.453125 622.179688 371.140625 621.546875 371.140625 C 620.917969 371.140625 620.601562 371.453125 620.601562 372.085938 Z M 683.121094 369.652344 C 683.75 369.652344 684.066406 369.339844 684.066406 368.707031 C 684.066406 368.078125 683.75 367.761719 683.121094 367.761719 L 657.046875 367.761719 L 657.046875 359.519531 L 683.121094 359.519531 C 683.75 359.519531 684.066406 359.207031 684.066406 358.574219 C 684.066406 357.945312 683.75 357.628906 683.121094 357.628906 L 655.15625 357.628906 L 655.15625 379.785156 L 683.121094 379.785156 C 683.75 379.785156 684.066406 379.472656 684.066406 378.839844 C 684.066406 378.210938 683.75 377.894531 683.121094 377.894531 L 657.046875 377.894531 L 657.046875 369.652344 Z M 729.394531 357.628906 L 702.375 357.628906 C 701.742188 357.628906 701.429688 357.945312 701.429688 358.574219 C 701.429688 359.207031 701.742188 359.519531 702.375 359.519531 L 714.9375 359.519531 L 714.9375 378.839844 C 714.9375 379.472656 715.253906 379.785156 715.882812 379.785156 C 716.515625 379.785156 716.828125 379.472656 716.828125 378.839844 L 716.828125 359.519531 L 729.394531 359.519531 C 730.023438 359.519531 730.339844 359.207031 730.339844 358.574219 C 730.339844 357.945312 730.023438 357.628906 729.394531 357.628906 Z M 750.03125 357.257812 C 745.933594 357.257812 742.421875 358.371094 739.492188 360.601562 C 736.5 362.875 735 365.644531 735 368.910156 C 735 372.175781 736.5 374.945312 739.492188 377.21875 C 742.398438 379.425781 745.910156 380.53125 750.03125 380.53125 C 754.152344 380.53125 757.652344 379.425781 760.535156 377.21875 C 763.53125 374.921875 765.027344 372.152344 765.027344 368.910156 C 765.027344 365.667969 763.53125 362.898438 760.535156 360.601562 C 757.609375 358.371094 754.105469 357.257812 750.03125 357.257812 Z M 763.167969 368.910156 C 763.167969 371.589844 761.886719 373.882812 759.320312 375.785156 C 756.753906 377.6875 753.65625 378.636719 750.03125 378.636719 C 746.40625 378.636719 743.308594 377.6875 740.742188 375.785156 C 738.175781 373.882812 736.890625 371.589844 736.890625 368.910156 C 736.890625 366.207031 738.175781 363.90625 740.742188 362.003906 C 743.308594 360.101562 746.40625 359.148438 750.03125 359.148438 C 753.65625 359.148438 756.753906 360.101562 759.320312 362.003906 C 761.886719 363.90625 763.167969 366.207031 763.167969 368.910156 Z M 796.472656 368.707031 C 798.339844 367.515625 799.277344 365.824219 799.277344 363.640625 C 799.277344 361.996094 798.691406 360.585938 797.519531 359.402344 C 796.347656 358.21875 794.941406 357.628906 793.296875 357.628906 L 770.398438 357.628906 L 770.398438 379.785156 L 793.296875 379.785156 C 794.941406 379.785156 796.347656 379.195312 797.519531 378.011719 C 798.691406 376.832031 799.277344 375.417969 799.277344 373.773438 C 799.277344 371.589844 798.339844 369.902344 796.472656 368.707031 Z M 793.296875 359.519531 C 794.421875 359.519531 795.386719 359.925781 796.183594 360.738281 C 796.984375 361.546875 797.382812 362.515625 797.382812 363.640625 C 797.382812 364.765625 796.984375 365.734375 796.183594 366.546875 C 795.386719 367.355469 794.421875 367.761719 793.296875 367.761719 L 772.253906 367.761719 L 772.253906 359.519531 Z M 793.296875 377.894531 L 772.253906 377.894531 L 772.253906 369.652344 L 793.296875 369.652344 C 794.421875 369.652344 795.386719 370.058594 796.183594 370.871094 C 796.984375 371.679688 797.382812 372.648438 797.382812 373.773438 C 797.382812 374.898438 796.984375 375.867188 796.183594 376.679688 C 795.386719 377.488281 794.421875 377.894531 793.296875 377.894531 Z M 840.480469 378.234375 L 822.3125 357.121094 L 804.714844 378.234375 C 804.578125 378.390625 804.511719 378.582031 804.511719 378.808594 C 804.511719 379.460938 804.835938 379.785156 805.492188 379.785156 C 805.761719 379.785156 805.984375 379.671875 806.164062 379.449219 L 811.503906 373.03125 L 833.523438 373.03125 L 839.0625 379.449219 C 839.265625 379.671875 839.515625 379.785156 839.804688 379.785156 C 840.414062 379.785156 840.71875 379.480469 840.71875 378.875 C 840.71875 378.625 840.640625 378.414062 840.480469 378.234375 Z M 813.089844 371.140625 L 822.34375 360.027344 L 831.9375 371.140625 Z M 873.71875 362.1875 C 872.34375 360.589844 870.554688 359.339844 868.347656 358.441406 C 866.140625 357.539062 863.789062 357.089844 861.289062 357.089844 C 857.167969 357.089844 853.65625 358.191406 850.75 360.398438 C 847.753906 362.671875 846.257812 365.441406 846.257812 368.707031 C 846.257812 371.972656 847.753906 374.742188 850.75 377.015625 C 853.65625 379.222656 857.167969 380.328125 861.289062 380.328125 C 863.789062 380.328125 866.140625 379.875 868.347656 378.976562 C 870.554688 378.074219 872.34375 376.824219 873.71875 375.226562 C 874.121094 374.730469 874.101562 374.292969 873.648438 373.910156 C 873.46875 373.75 873.253906 373.671875 873.007812 373.671875 C 872.738281 373.671875 872.511719 373.773438 872.332031 373.976562 C 871.09375 375.371094 869.5 376.472656 867.554688 377.269531 C 865.605469 378.070312 863.515625 378.46875 861.289062 378.46875 C 857.664062 378.46875 854.566406 377.511719 852 375.597656 C 849.433594 373.683594 848.148438 371.386719 848.148438 368.707031 C 848.148438 366.027344 849.433594 363.730469 852 361.816406 C 854.566406 359.902344 857.664062 358.945312 861.289062 358.945312 C 863.515625 358.945312 865.605469 359.347656 867.554688 360.144531 C 869.5 360.945312 871.09375 362.042969 872.332031 363.4375 C 872.511719 363.640625 872.738281 363.742188 873.007812 363.742188 C 873.253906 363.742188 873.46875 363.664062 873.648438 363.507812 C 874.101562 363.125 874.121094 362.683594 873.71875 362.1875 Z M 907.324219 362.1875 C 905.949219 360.589844 904.160156 359.339844 901.953125 358.441406 C 899.746094 357.539062 897.394531 357.089844 894.894531 357.089844 C 890.773438 357.089844 887.261719 358.191406 884.355469 360.398438 C 881.363281 362.671875 879.863281 365.441406 879.863281 368.707031 C 879.863281 371.972656 881.363281 374.742188 884.355469 377.015625 C 887.261719 379.222656 890.773438 380.328125 894.894531 380.328125 C 897.394531 380.328125 899.746094 379.875 901.953125 378.976562 C 904.160156 378.074219 905.949219 376.824219 907.324219 375.226562 C 907.730469 374.730469 907.707031 374.292969 907.257812 373.910156 C 907.078125 373.75 906.863281 373.671875 906.613281 373.671875 C 906.34375 373.671875 906.121094 373.773438 905.9375 373.976562 C 904.699219 375.371094 903.109375 376.472656 901.160156 377.269531 C 899.210938 378.070312 897.125 378.46875 894.894531 378.46875 C 891.269531 378.46875 888.171875 377.511719 885.605469 375.597656 C 883.039062 373.683594 881.753906 371.386719 881.753906 368.707031 C 881.753906 366.027344 883.039062 363.730469 885.605469 361.816406 C 888.171875 359.902344 891.269531 358.945312 894.894531 358.945312 C 897.125 358.945312 899.210938 359.347656 901.160156 360.144531 C 903.109375 360.945312 904.699219 362.042969 905.9375 363.4375 C 906.121094 363.640625 906.34375 363.742188 906.613281 363.742188 C 906.863281 363.742188 907.078125 363.664062 907.257812 363.507812 C 907.707031 363.125 907.730469 362.683594 907.324219 362.1875 Z M 928.265625 357.257812 C 924.167969 357.257812 920.652344 358.371094 917.726562 360.601562 C 914.730469 362.875 913.234375 365.644531 913.234375 368.910156 C 913.234375 372.175781 914.730469 374.945312 917.726562 377.21875 C 920.632812 379.425781 924.144531 380.53125 928.265625 380.53125 C 932.386719 380.53125 935.886719 379.425781 938.769531 377.21875 C 941.765625 374.921875 943.261719 372.152344 943.261719 368.910156 C 943.261719 365.667969 941.765625 362.898438 938.769531 360.601562 C 935.84375 358.371094 932.339844 357.257812 928.265625 357.257812 Z M 941.402344 368.910156 C 941.402344 371.589844 940.121094 373.882812 937.554688 375.785156 C 934.984375 377.6875 931.890625 378.636719 928.265625 378.636719 C 924.640625 378.636719 921.542969 377.6875 918.976562 375.785156 C 916.410156 373.882812 915.125 371.589844 915.125 368.910156 C 915.125 366.207031 916.410156 363.90625 918.976562 362.003906 C 921.542969 360.101562 924.640625 359.148438 928.265625 359.148438 C 931.890625 359.148438 934.984375 360.101562 937.554688 362.003906 C 940.121094 363.90625 941.402344 366.207031 941.402344 368.910156 Z M 988.554688 369.652344 C 989.183594 369.652344 989.5 369.339844 989.5 368.707031 C 989.5 368.078125 989.183594 367.761719 988.554688 367.761719 L 962.480469 367.761719 L 962.480469 359.519531 L 988.554688 359.519531 C 989.183594 359.519531 989.5 359.207031 989.5 358.574219 C 989.5 357.945312 989.183594 357.628906 988.554688 357.628906 L 960.589844 357.628906 L 960.589844 379.785156 L 988.554688 379.785156 C 989.183594 379.785156 989.5 379.472656 989.5 378.839844 C 989.5 378.210938 989.183594 377.894531 988.554688 377.894531 L 962.480469 377.894531 L 962.480469 369.652344 Z M 1022.871094 357.832031 C 1022.238281 357.832031 1021.925781 358.148438 1021.925781 358.777344 L 1021.925781 377.152344 L 994.902344 356.886719 L 994.902344 379.042969 C 994.902344 379.652344 995.21875 379.957031 995.851562 379.957031 C 996.480469 379.957031 996.796875 379.652344 996.796875 379.042969 L 996.796875 360.636719 L 1023.816406 380.902344 L 1023.816406 358.777344 C 1023.816406 358.148438 1023.5 357.832031 1022.871094 357.832031 Z M 1056.746094 357.628906 L 1029.726562 357.628906 C 1029.097656 357.628906 1028.78125 357.945312 1028.78125 358.574219 C 1028.78125 359.207031 1029.097656 359.519531 1029.726562 359.519531 L 1042.292969 359.519531 L 1042.292969 378.839844 C 1042.292969 379.472656 1042.605469 379.785156 1043.238281 379.785156 C 1043.867188 379.785156 1044.183594 379.472656 1044.183594 378.839844 L 1044.183594 359.519531 L 1056.746094 359.519531 C 1057.378906 359.519531 1057.691406 359.207031 1057.691406 358.574219 C 1057.691406 357.945312 1057.378906 357.628906 1056.746094 357.628906 Z M 1090.589844 369.652344 C 1091.222656 369.652344 1091.535156 369.339844 1091.535156 368.707031 C 1091.535156 368.078125 1091.222656 367.761719 1090.589844 367.761719 L 1064.515625 367.761719 L 1064.515625 359.519531 L 1090.589844 359.519531 C 1091.222656 359.519531 1091.535156 359.207031 1091.535156 358.574219 C 1091.535156 357.945312 1091.222656 357.628906 1090.589844 357.628906 L 1062.625 357.628906 L 1062.625 379.785156 L 1090.589844 379.785156 C 1091.222656 379.785156 1091.535156 379.472656 1091.535156 378.839844 C 1091.535156 378.210938 1091.222656 377.894531 1090.589844 377.894531 L 1064.515625 377.894531 L 1064.515625 369.652344 Z M 1125.785156 378.0625 L 1118.21875 373.03125 L 1118.488281 373.03125 C 1120.628906 373.03125 1122.445312 372.277344 1123.945312 370.769531 C 1125.441406 369.257812 1126.191406 367.445312 1126.191406 365.332031 C 1126.191406 363.191406 1125.441406 361.371094 1123.945312 359.875 C 1122.445312 358.378906 1120.628906 357.628906 1118.488281 357.628906 L 1097.277344 357.628906 L 1097.277344 378.839844 C 1097.277344 379.472656 1097.59375 379.785156 1098.222656 379.785156 C 1098.855469 379.785156 1099.167969 379.472656 1099.167969 378.839844 L 1099.167969 373.03125 L 1114.839844 373.03125 L 1124.738281 379.617188 C 1124.894531 379.730469 1125.0625 379.785156 1125.246094 379.785156 C 1125.582031 379.785156 1125.839844 379.640625 1126.019531 379.347656 C 1126.132812 379.191406 1126.191406 379.019531 1126.191406 378.839844 C 1126.191406 378.503906 1126.054688 378.242188 1125.785156 378.0625 Z M 1099.167969 359.519531 L 1118.488281 359.519531 C 1120.085938 359.519531 1121.457031 360.089844 1122.59375 361.226562 C 1123.730469 362.363281 1124.296875 363.730469 1124.296875 365.332031 C 1124.296875 366.929688 1123.730469 368.296875 1122.59375 369.433594 C 1121.457031 370.570312 1120.089844 371.140625 1118.488281 371.140625 L 1099.167969 371.140625 Z M 1153.277344 357.628906 L 1132.066406 357.628906 L 1132.066406 378.839844 C 1132.066406 379.472656 1132.382812 379.785156 1133.011719 379.785156 C 1133.644531 379.785156 1133.957031 379.472656 1133.957031 378.839844 L 1133.957031 373.03125 L 1153.277344 373.03125 C 1155.417969 373.03125 1157.234375 372.277344 1158.734375 370.769531 C 1160.230469 369.257812 1160.980469 367.445312 1160.980469 365.332031 C 1160.980469 363.191406 1160.230469 361.371094 1158.734375 359.875 C 1157.234375 358.378906 1155.417969 357.628906 1153.277344 357.628906 Z M 1153.277344 371.140625 L 1133.957031 371.140625 L 1133.957031 359.519531 L 1153.277344 359.519531 C 1154.875 359.519531 1156.246094 360.089844 1157.382812 361.226562 C 1158.519531 362.363281 1159.085938 363.730469 1159.085938 365.332031 C 1159.085938 366.929688 1158.519531 368.296875 1157.382812 369.433594 C 1156.246094 370.570312 1154.875 371.140625 1153.277344 371.140625 Z M 1195.363281 378.0625 L 1187.796875 373.03125 L 1188.066406 373.03125 C 1190.207031 373.03125 1192.023438 372.277344 1193.523438 370.769531 C 1195.019531 369.257812 1195.769531 367.445312 1195.769531 365.332031 C 1195.769531 363.191406 1195.019531 361.371094 1193.523438 359.875 C 1192.023438 358.378906 1190.207031 357.628906 1188.066406 357.628906 L 1166.855469 357.628906 L 1166.855469 378.839844 C 1166.855469 379.472656 1167.171875 379.785156 1167.800781 379.785156 C 1168.433594 379.785156 1168.746094 379.472656 1168.746094 378.839844 L 1168.746094 373.03125 L 1184.417969 373.03125 L 1194.316406 379.617188 C 1194.472656 379.730469 1194.640625 379.785156 1194.820312 379.785156 C 1195.160156 379.785156 1195.417969 379.640625 1195.597656 379.347656 C 1195.710938 379.191406 1195.769531 379.019531 1195.769531 378.839844 C 1195.769531 378.503906 1195.632812 378.242188 1195.363281 378.0625 Z M 1168.746094 359.519531 L 1188.066406 359.519531 C 1189.664062 359.519531 1191.035156 360.089844 1192.171875 361.226562 C 1193.308594 362.363281 1193.875 363.730469 1193.875 365.332031 C 1193.875 366.929688 1193.308594 368.296875 1192.171875 369.433594 C 1191.035156 370.570312 1189.664062 371.140625 1188.066406 371.140625 L 1168.746094 371.140625 Z M 1201.8125 358.777344 L 1201.8125 379.042969 C 1201.8125 379.652344 1202.117188 379.957031 1202.726562 379.957031 C 1203.355469 379.957031 1203.671875 379.652344 1203.671875 379.042969 L 1203.671875 358.777344 C 1203.671875 358.148438 1203.355469 357.832031 1202.726562 357.832031 C 1202.117188 357.832031 1201.8125 358.148438 1201.8125 358.777344 Z M 1209.820312 372.085938 C 1209.820312 374.40625 1211.214844 376.359375 1214.007812 377.945312 C 1216.796875 379.53125 1220.222656 380.328125 1224.273438 380.328125 C 1228.304688 380.328125 1231.59375 379.886719 1234.136719 379.007812 C 1237.199219 377.953125 1238.730469 376.398438 1238.730469 374.347656 C 1238.730469 372.210938 1237.425781 370.667969 1234.8125 369.722656 C 1233.328125 369.179688 1230.433594 368.617188 1226.132812 368.03125 L 1222.789062 367.558594 C 1218.710938 366.972656 1216.011719 366.457031 1214.683594 366.007812 C 1212.699219 365.332031 1211.710938 364.351562 1211.710938 363.066406 C 1211.710938 361.851562 1212.878906 360.859375 1215.222656 360.09375 C 1217.5625 359.328125 1220.582031 358.945312 1224.273438 358.945312 C 1227.675781 358.945312 1230.617188 359.578125 1233.105469 360.839844 C 1235.59375 362.097656 1236.839844 363.597656 1236.839844 365.332031 C 1236.839844 365.960938 1237.152344 366.277344 1237.785156 366.277344 C 1238.414062 366.277344 1238.730469 365.960938 1238.730469 365.332031 C 1238.730469 363.011719 1237.335938 361.058594 1234.542969 359.46875 C 1231.75 357.882812 1228.328125 357.089844 1224.273438 357.089844 C 1220.242188 357.089844 1216.957031 357.527344 1214.410156 358.40625 C 1211.347656 359.464844 1209.816406 361.019531 1209.816406 363.066406 C 1209.816406 365.207031 1211.179688 366.761719 1213.90625 367.726562 C 1215.210938 368.179688 1218.09375 368.742188 1222.550781 369.417969 L 1224.140625 369.652344 L 1225.863281 369.890625 C 1229.980469 370.453125 1232.71875 370.972656 1234.070312 371.445312 C 1235.914062 372.074219 1236.839844 373.042969 1236.839844 374.347656 C 1236.839844 375.5625 1235.667969 376.554688 1233.328125 377.320312 C 1230.984375 378.085938 1227.96875 378.46875 1224.273438 378.46875 C 1220.875 378.46875 1217.929688 377.839844 1215.441406 376.578125 C 1212.953125 375.316406 1211.710938 373.820312 1211.710938 372.085938 C 1211.710938 371.453125 1211.394531 371.140625 1210.765625 371.140625 C 1210.132812 371.140625 1209.820312 371.453125 1209.820312 372.085938 Z M 1272.335938 369.652344 C 1272.96875 369.652344 1273.28125 369.339844 1273.28125 368.707031 C 1273.28125 368.078125 1272.96875 367.761719 1272.335938 367.761719 L 1246.261719 367.761719 L 1246.261719 359.519531 L 1272.335938 359.519531 C 1272.96875 359.519531 1273.28125 359.207031 1273.28125 358.574219 C 1273.28125 357.945312 1272.96875 357.628906 1272.335938 357.628906 L 1244.371094 357.628906 L 1244.371094 379.785156 L 1272.335938 379.785156 C 1272.96875 379.785156 1273.28125 379.472656 1273.28125 378.839844 C 1273.28125 378.210938 1272.96875 377.894531 1272.335938 377.894531 L 1246.261719 377.894531 L 1246.261719 369.652344 Z M 1319.421875 367.761719 L 1293.34375 367.761719 L 1293.34375 359.519531 L 1319.421875 359.519531 C 1320.050781 359.519531 1320.367188 359.207031 1320.367188 358.574219 C 1320.367188 357.945312 1320.050781 357.628906 1319.421875 357.628906 L 1291.453125 357.628906 L 1291.453125 378.839844 C 1291.453125 379.472656 1291.769531 379.785156 1292.398438 379.785156 C 1293.03125 379.785156 1293.34375 379.472656 1293.34375 378.839844 L 1293.34375 369.652344 L 1319.421875 369.652344 C 1320.050781 369.652344 1320.367188 369.339844 1320.367188 368.707031 C 1320.367188 368.078125 1320.050781 367.761719 1319.421875 367.761719 Z M 1354.816406 378.097656 L 1330.632812 378.097656 L 1357.65625 357.832031 L 1327.796875 357.832031 C 1327.1875 357.832031 1326.882812 358.148438 1326.882812 358.777344 C 1326.882812 359.386719 1327.1875 359.691406 1327.796875 359.691406 L 1352.015625 359.691406 L 1324.992188 379.957031 L 1354.816406 379.957031 C 1355.449219 379.957031 1355.761719 379.652344 1355.761719 379.042969 C 1355.761719 378.414062 1355.449219 378.097656 1354.816406 378.097656 Z M 1363.125 369.890625 L 1383.390625 369.890625 C 1384 369.890625 1384.304688 369.574219 1384.304688 368.945312 C 1384.304688 368.3125 1384 368 1383.390625 368 L 1363.125 368 C 1362.496094 368 1362.179688 368.3125 1362.179688 368.945312 C 1362.179688 369.574219 1362.496094 369.890625 1363.125 369.890625 Z M 1418.246094 378.097656 L 1392.171875 378.097656 L 1392.171875 358.777344 C 1392.171875 358.148438 1391.859375 357.832031 1391.226562 357.832031 C 1390.597656 357.832031 1390.28125 358.148438 1390.28125 358.777344 L 1390.28125 379.957031 L 1418.246094 379.957031 C 1418.878906 379.957031 1419.195312 379.652344 1419.195312 379.042969 C 1419.195312 378.414062 1418.878906 378.097656 1418.246094 378.097656 Z M 1452.867188 378.097656 L 1426.792969 378.097656 L 1426.792969 358.777344 C 1426.792969 358.148438 1426.476562 357.832031 1425.847656 357.832031 C 1425.21875 357.832031 1424.902344 358.148438 1424.902344 358.777344 L 1424.902344 379.957031 L 1452.867188 379.957031 C 1453.5 379.957031 1453.8125 379.652344 1453.8125 379.042969 C 1453.8125 378.414062 1453.5 378.097656 1452.867188 378.097656 Z M 1486.542969 362.1875 C 1485.167969 360.589844 1483.378906 359.339844 1481.171875 358.441406 C 1478.964844 357.539062 1476.613281 357.089844 1474.113281 357.089844 C 1469.992188 357.089844 1466.480469 358.191406 1463.574219 360.398438 C 1460.578125 362.671875 1459.082031 365.441406 1459.082031 368.707031 C 1459.082031 371.972656 1460.578125 374.742188 1463.574219 377.015625 C 1466.480469 379.222656 1469.992188 380.328125 1474.113281 380.328125 C 1476.613281 380.328125 1478.964844 379.875 1481.171875 378.976562 C 1483.378906 378.074219 1485.167969 376.824219 1486.542969 375.226562 C 1486.949219 374.730469 1486.925781 374.292969 1486.472656 373.910156 C 1486.292969 373.75 1486.082031 373.671875 1485.832031 373.671875 C 1485.5625 373.671875 1485.335938 373.773438 1485.15625 373.976562 C 1483.917969 375.371094 1482.324219 376.472656 1480.378906 377.269531 C 1478.429688 378.070312 1476.34375 378.46875 1474.113281 378.46875 C 1470.488281 378.46875 1467.390625 377.511719 1464.824219 375.597656 C 1462.257812 373.683594 1460.972656 371.386719 1460.972656 368.707031 C 1460.972656 366.027344 1462.257812 363.730469 1464.824219 361.816406 C 1467.390625 359.902344 1470.488281 358.945312 1474.113281 358.945312 C 1476.34375 358.945312 1478.429688 359.347656 1480.378906 360.144531 C 1482.324219 360.945312 1483.917969 362.042969 1485.15625 363.4375 C 1485.335938 363.640625 1485.5625 363.742188 1485.832031 363.742188 C 1486.082031 363.742188 1486.292969 363.664062 1486.472656 363.507812 C 1486.925781 363.125 1486.949219 362.683594 1486.542969 362.1875 Z M 1486.542969 362.1875 " fill-opacity="1" fill-rule="nonzero"/></svg>